{
	"patcher" : 	{
		"fileversion" : 1,
		"appversion" : 		{
			"major" : 9,
			"minor" : 0,
			"revision" : 7,
			"architecture" : "x64",
			"modernui" : 1
		}
,
		"classnamespace" : "box",
		"rect" : [ 793.0, 234.0, 1007.0, 591.0 ],
		"gridsize" : [ 15.0, 15.0 ],
		"toolbarvisible" : 0,
		"boxes" : [ 			{
				"box" : 				{
					"id" : "obj-43",
					"maxclass" : "newobj",
					"numinlets" : 1,
					"numoutlets" : 1,
					"outlettype" : [ "" ],
					"patching_rect" : [ 500.0, 273.0, 73.0, 22.0 ],
					"text" : "loadmess 1."
				}

			}
, 			{
				"box" : 				{
					"id" : "obj-13",
					"maxclass" : "newobj",
					"numinlets" : 1,
					"numoutlets" : 2,
					"outlettype" : [ "bang", "float" ],
					"patching_rect" : [ 451.0, 327.0, 29.5, 22.0 ],
					"text" : "t b f"
				}

			}
, 			{
				"box" : 				{
					"id" : "obj-12",
					"maxclass" : "newobj",
					"numinlets" : 1,
					"numoutlets" : 2,
					"outlettype" : [ "bang", "float" ],
					"patching_rect" : [ 397.0, 327.0, 29.5, 22.0 ],
					"text" : "t b f"
				}

			}
, 			{
				"box" : 				{
					"contdata" : 1,
					"id" : "obj-8",
					"maxclass" : "multislider",
					"numinlets" : 1,
					"numoutlets" : 2,
					"orientation" : 0,
					"outlettype" : [ "", "" ],
					"parameter_enable" : 0,
					"patching_rect" : [ 237.0, 528.0, 325.0, 33.0 ],
					"setminmax" : [ 0.0, 255.0 ],
					"setstyle" : 1,
					"settype" : 0
				}

			}
, 			{
				"box" : 				{
					"id" : "obj-42",
					"maxclass" : "newobj",
					"numinlets" : 1,
					"numoutlets" : 1,
					"outlettype" : [ "" ],
					"patching_rect" : [ 379.0, 474.0, 51.0, 22.0 ],
					"text" : "pcontrol"
				}

			}
, 			{
				"box" : 				{
					"id" : "obj-14",
					"maxclass" : "newobj",
					"numinlets" : 1,
					"numoutlets" : 1,
					"outlettype" : [ "" ],
					"patching_rect" : [ 379.0, 442.0, 90.0, 22.0 ],
					"text" : "loadmess open"
				}

			}
, 			{
				"box" : 				{
					"id" : "obj-40",
					"maxclass" : "newobj",
					"numinlets" : 1,
					"numoutlets" : 1,
					"outlettype" : [ "" ],
					"patching_rect" : [ 219.0, 488.0, 97.0, 22.0 ],
					"text" : "face-projection 2"
				}

			}
, 			{
				"box" : 				{
					"id" : "obj-35",
					"maxclass" : "newobj",
					"numinlets" : 1,
					"numoutlets" : 1,
					"outlettype" : [ "" ],
					"patching_rect" : [ 52.5, 488.0, 97.0, 22.0 ],
					"text" : "face-projection 1"
				}

			}
, 			{
				"box" : 				{
					"id" : "obj-39",
					"maxclass" : "newobj",
					"numinlets" : 5,
					"numoutlets" : 0,
					"patcher" : 					{
						"fileversion" : 1,
						"appversion" : 						{
							"major" : 9,
							"minor" : 0,
							"revision" : 7,
							"architecture" : "x64",
							"modernui" : 1
						}
,
						"classnamespace" : "box",
						"rect" : [ 985.0, 575.0, 758.0, 560.0 ],
						"gridsize" : [ 15.0, 15.0 ],
						"boxes" : [ 							{
								"box" : 								{
									"id" : "obj-18",
									"maxclass" : "number",
									"numinlets" : 1,
									"numoutlets" : 2,
									"outlettype" : [ "", "bang" ],
									"parameter_enable" : 0,
									"patching_rect" : [ 408.0, 60.0, 50.0, 22.0 ]
								}

							}
, 							{
								"box" : 								{
									"id" : "obj-11",
									"maxclass" : "comment",
									"numinlets" : 1,
									"numoutlets" : 0,
									"patching_rect" : [ 500.0, 20.0, 143.0, 20.0 ],
									"text" : "white value for all 4 lights"
								}

							}
, 							{
								"box" : 								{
									"comment" : "",
									"id" : "obj-12",
									"index" : 5,
									"maxclass" : "inlet",
									"numinlets" : 0,
									"numoutlets" : 1,
									"outlettype" : [ "" ],
									"patching_rect" : [ 457.0, 15.0, 30.0, 30.0 ]
								}

							}
, 							{
								"box" : 								{
									"id" : "obj-5",
									"maxclass" : "number",
									"numinlets" : 1,
									"numoutlets" : 2,
									"outlettype" : [ "", "bang" ],
									"parameter_enable" : 0,
									"patching_rect" : [ 489.0, 376.0, 50.0, 22.0 ]
								}

							}
, 							{
								"box" : 								{
									"id" : "obj-3",
									"linecount" : 2,
									"maxclass" : "message",
									"numinlets" : 2,
									"numoutlets" : 1,
									"outlettype" : [ "" ],
									"patching_rect" : [ 7.0, 216.0, 119.0, 35.0 ],
									"text" : "255 0 0 0 0 0 0 0 0 0 0 0 0 0 0 0"
								}

							}
, 							{
								"box" : 								{
									"id" : "obj-16",
									"maxclass" : "comment",
									"numinlets" : 1,
									"numoutlets" : 0,
									"patching_rect" : [ 291.5, 15.0, 131.0, 20.0 ],
									"text" : "RGB values for 4 lights"
								}

							}
, 							{
								"box" : 								{
									"comment" : "",
									"id" : "obj-14",
									"index" : 4,
									"maxclass" : "inlet",
									"numinlets" : 0,
									"numoutlets" : 1,
									"outlettype" : [ "" ],
									"patching_rect" : [ 248.5, 10.0, 30.0, 30.0 ]
								}

							}
, 							{
								"box" : 								{
									"comment" : "",
									"id" : "obj-13",
									"index" : 3,
									"maxclass" : "inlet",
									"numinlets" : 0,
									"numoutlets" : 1,
									"outlettype" : [ "" ],
									"patching_rect" : [ 201.0, 10.0, 30.0, 30.0 ]
								}

							}
, 							{
								"box" : 								{
									"comment" : "",
									"id" : "obj-10",
									"index" : 2,
									"maxclass" : "inlet",
									"numinlets" : 0,
									"numoutlets" : 1,
									"outlettype" : [ "" ],
									"patching_rect" : [ 153.5, 10.0, 30.0, 30.0 ]
								}

							}
, 							{
								"box" : 								{
									"comment" : "",
									"id" : "obj-9",
									"index" : 1,
									"maxclass" : "inlet",
									"numinlets" : 0,
									"numoutlets" : 1,
									"outlettype" : [ "" ],
									"patching_rect" : [ 114.0, 10.0, 30.0, 30.0 ]
								}

							}
, 							{
								"box" : 								{
									"id" : "obj-49",
									"linecount" : 2,
									"maxclass" : "comment",
									"numinlets" : 1,
									"numoutlets" : 0,
									"patching_rect" : [ 547.0, 184.0, 150.0, 33.0 ],
									"text" : "every 4th inlet is the DMX black value"
								}

							}
, 							{
								"box" : 								{
									"id" : "obj-47",
									"maxclass" : "newobj",
									"numinlets" : 1,
									"numoutlets" : 3,
									"outlettype" : [ "int", "int", "int" ],
									"patching_rect" : [ 344.0, 108.0, 65.0, 22.0 ],
									"text" : "unpack i i i"
								}

							}
, 							{
								"box" : 								{
									"id" : "obj-36",
									"maxclass" : "newobj",
									"numinlets" : 1,
									"numoutlets" : 3,
									"outlettype" : [ "int", "int", "int" ],
									"patching_rect" : [ 268.0, 108.0, 65.0, 22.0 ],
									"text" : "unpack i i i"
								}

							}
, 							{
								"box" : 								{
									"id" : "obj-35",
									"maxclass" : "newobj",
									"numinlets" : 1,
									"numoutlets" : 3,
									"outlettype" : [ "int", "int", "int" ],
									"patching_rect" : [ 191.0, 108.0, 65.0, 22.0 ],
									"text" : "unpack i i i"
								}

							}
, 							{
								"box" : 								{
									"id" : "obj-23",
									"maxclass" : "newobj",
									"numinlets" : 1,
									"numoutlets" : 3,
									"outlettype" : [ "int", "int", "int" ],
									"patching_rect" : [ 115.0, 108.0, 65.0, 22.0 ],
									"text" : "unpack i i i"
								}

							}
, 							{
								"box" : 								{
									"fontname" : "Arial",
									"fontsize" : 9.0,
									"id" : "obj-17",
									"maxclass" : "comment",
									"numinlets" : 1,
									"numoutlets" : 0,
									"patching_rect" : [ 167.0, 208.0, 81.0, 17.0 ],
									"text" : "data range 0_255"
								}

							}
, 							{
								"box" : 								{
									"color" : [ 0.75, 0.75, 0.75, 1.0 ],
									"fontface" : 0,
									"fontname" : "Arial",
									"fontsize" : 9.0,
									"id" : "obj-8",
									"maxclass" : "newobj",
									"numinlets" : 16,
									"numoutlets" : 1,
									"outlettype" : [ "" ],
									"patching_rect" : [ 123.0, 191.0, 413.6875, 19.0 ],
									"text" : "pak 0 0 0 0 0 0 0 0 0 0 0 0 0 0 0 0"
								}

							}
, 							{
								"box" : 								{
									"id" : "obj-4",
									"maxclass" : "newobj",
									"numinlets" : 2,
									"numoutlets" : 1,
									"outlettype" : [ "" ],
									"patching_rect" : [ 322.0, 304.0, 63.0, 22.0 ],
									"text" : "pipe 5000"
								}

							}
, 							{
								"box" : 								{
									"id" : "obj-1",
									"maxclass" : "newobj",
									"numinlets" : 1,
									"numoutlets" : 1,
									"outlettype" : [ "" ],
									"patching_rect" : [ 322.0, 270.0, 70.0, 22.0 ],
									"text" : "loadmess 2"
								}

							}
, 							{
								"box" : 								{
									"fontname" : "Arial",
									"fontsize" : 9.0,
									"id" : "obj-46",
									"maxclass" : "message",
									"numinlets" : 2,
									"numoutlets" : 1,
									"outlettype" : [ "" ],
									"patching_rect" : [ 55.0, 328.0, 39.0, 19.0 ],
									"text" : "getport"
								}

							}
, 							{
								"box" : 								{
									"fontname" : "Arial",
									"fontsize" : 9.0,
									"id" : "obj-45",
									"maxclass" : "comment",
									"numinlets" : 1,
									"numoutlets" : 0,
									"patching_rect" : [ 316.0, 342.0, 93.0, 17.0 ],
									"text" : "available serial ports"
								}

							}
, 							{
								"box" : 								{
									"color" : [ 0.75, 0.75, 0.75, 1.0 ],
									"fontname" : "Arial",
									"fontsize" : 9.0,
									"id" : "obj-41",
									"maxclass" : "newobj",
									"numinlets" : 1,
									"numoutlets" : 1,
									"outlettype" : [ "bang" ],
									"patching_rect" : [ 143.0, 354.0, 48.0, 19.0 ],
									"text" : "loadbang"
								}

							}
, 							{
								"box" : 								{
									"color" : [ 0.75, 0.75, 0.75, 1.0 ],
									"fontname" : "Arial",
									"fontsize" : 9.0,
									"id" : "obj-37",
									"maxclass" : "newobj",
									"numinlets" : 2,
									"numoutlets" : 2,
									"outlettype" : [ "", "" ],
									"patching_rect" : [ 147.0, 469.0, 40.0, 19.0 ],
									"text" : "zl iter 1"
								}

							}
, 							{
								"box" : 								{
									"color" : [ 0.75, 0.75, 0.75, 1.0 ],
									"fontname" : "Arial",
									"fontsize" : 9.0,
									"id" : "obj-33",
									"maxclass" : "newobj",
									"numinlets" : 1,
									"numoutlets" : 1,
									"outlettype" : [ "" ],
									"patching_rect" : [ 147.0, 495.0, 76.0, 19.0 ],
									"text" : "prepend append"
								}

							}
, 							{
								"box" : 								{
									"color" : [ 0.75, 0.75, 0.75, 1.0 ],
									"fontname" : "Arial",
									"fontsize" : 9.0,
									"id" : "obj-39",
									"maxclass" : "newobj",
									"numinlets" : 2,
									"numoutlets" : 2,
									"outlettype" : [ "", "" ],
									"patching_rect" : [ 121.0, 443.0, 45.0, 19.0 ],
									"text" : "zl slice 1"
								}

							}
, 							{
								"box" : 								{
									"fontname" : "Arial",
									"fontsize" : 9.0,
									"id" : "obj-42",
									"maxclass" : "message",
									"numinlets" : 2,
									"numoutlets" : 1,
									"outlettype" : [ "" ],
									"patching_rect" : [ 55.0, 371.0, 32.5, 19.0 ],
									"text" : "close"
								}

							}
, 							{
								"box" : 								{
									"color" : [ 0.75, 0.75, 0.75, 1.0 ],
									"fontname" : "Arial",
									"fontsize" : 9.0,
									"id" : "obj-32",
									"maxclass" : "newobj",
									"numinlets" : 1,
									"numoutlets" : 2,
									"outlettype" : [ "print", "clear" ],
									"patching_rect" : [ 143.0, 383.0, 100.0, 19.0 ],
									"text" : "t print clear"
								}

							}
, 							{
								"box" : 								{
									"allowdrag" : 0,
									"bgcolor" : [ 1.0, 1.0, 1.0, 1.0 ],
									"bgfillcolor_angle" : 270.0,
									"bgfillcolor_color" : [ 1.0, 1.0, 1.0, 1.0 ],
									"bgfillcolor_color1" : [ 0.376471, 0.384314, 0.4, 1.0 ],
									"bgfillcolor_color2" : [ 0.290196, 0.309804, 0.301961, 1.0 ],
									"bgfillcolor_proportion" : 0.39,
									"bgfillcolor_type" : "color",
									"id" : "obj-30",
									"items" : [ "debug-console", ",", "Bluetooth-Incoming-Port", ",", "usbserial-EN495753", ",", 132, ",", 264, ",", 396, ",", 264, ",", 396, ",", 528, ",", 132, ",", 132, ",", 132, ",", 132, ",", 132, ",", 132, ",", 132, ",", 132, ",", 132, ",", 132, ",", 132, ",", 132, ",", 132, ",", 132, ",", 66, ",", 66, ",", 132, ",", 132, ",", 132, ",", 132, ",", 132, ",", 66, ",", 66, ",", 132, ",", 132, ",", 132, ",", 132, ",", 132, ",", 132, ",", 132, ",", 132, ",", 132, ",", 132, ",", 132, ",", 132, ",", 132, ",", 132, ",", 132, ",", 132, ",", 132, ",", 132, ",", 66, ",", 66, ",", 132, ",", 132, ",", 132, ",", 132, ",", 132, ",", 132, ",", 132, ",", 132, ",", 132, ",", 132, ",", 66, ",", 66, ",", 66, ",", 66, ",", 132, ",", 132, ",", 132, ",", 88, ",", 44, ",", 132, ",", 132, ",", 132, ",", 132, ",", 132, ",", 132, ",", 132, ",", 132, ",", 132, ",", 132, ",", 132, ",", 132, ",", 132, ",", 132, ",", 132, ",", 132, ",", 132, ",", 132, ",", 66, ",", 66, ",", 132, ",", 132, ",", 132, ",", 132, ",", 132, ",", 132, ",", 132, ",", 132, ",", 132, ",", 132, ",", 132, ",", 132, ",", 132, ",", 132, ",", 132, ",", 132, ",", 132, ",", 132, ",", 132, ",", 132, ",", 132, ",", 132, ",", 132, ",", 132, ",", 132, ",", 132, ",", 132, ",", 132, ",", 132, ",", 132, ",", 132, ",", 132, ",", 132, ",", 132, ",", 132, ",", 132, ",", 132, ",", 132, ",", 132, ",", 132, ",", 132, ",", 132, ",", 132, ",", 132, ",", 132, ",", 132, ",", 132, ",", 132, ",", 132, ",", 132, ",", 132, ",", 132, ",", 132, ",", 132, ",", 132, ",", 132, ",", 132, ",", 132, ",", 132, ",", 132, ",", 132, ",", 132, ",", 132, ",", 132, ",", 132, ",", 132, ",", 132, ",", 132, ",", 132, ",", 132, ",", 66, ",", 66, ",", 132, ",", 132, ",", 132, ",", 132, ",", 132, ",", 132, ",", 132, ",", 132, ",", 132, ",", 132, ",", 132, ",", 132, ",", 132, ",", 132, ",", 132, ",", 132, ",", 132, ",", 132, ",", 22, ",", 110, ",", 132, ",", 132, ",", 132, ",", 66, ",", 66, ",", 132, ",", 132, ",", 132, ",", 132, ",", 66, ",", 66, ",", 66, ",", 66, ",", 66, ",", 66, ",", 66, ",", 66, ",", 66, ",", 66, ",", 66, ",", 66, ",", 66, ",", 66, ",", 66, ",", 66, ",", 66, ",", 66, ",", 66, ",", 66, ",", 66, ",", 66, ",", 66, ",", 66, ",", 66, ",", 66, ",", 66, ",", 66, ",", 66, ",", 66, ",", 66, ",", 66, ",", 66, ",", 66, ",", 66, ",", 66, ",", 66, ",", 66, ",", 66, ",", 66, ",", 66, ",", 66, ",", 66, ",", 66, ",", 66, ",", 66, ",", 66, ",", 66, ",", 66, ",", 66, ",", 66, ",", 66, ",", 66, ",", 66, ",", 66, ",", 66, ",", 66, ",", 66, ",", 66, ",", 66, ",", 22, ",", 44, ",", 66, ",", 66, ",", 66, ",", 66, ",", 66, ",", 66, ",", 66, ",", 66, ",", 66, ",", 66, ",", 66, ",", 66, ",", 66, ",", 66, ",", 66, ",", 66, ",", 66, ",", 66, ",", 66, ",", 66, ",", 66, ",", 66, ",", 66, ",", 66, ",", 66, ",", 66, ",", 66, ",", 66, ",", 66, ",", 66, ",", 66, ",", 66, ",", 66, ",", 66, ",", 66, ",", 66, ",", 66, ",", 66, ",", 66, ",", 66, ",", 66, ",", 66, ",", 66, ",", 66, ",", 66, ",", 66, ",", 66, ",", 66, ",", 66, ",", 66, ",", 66, ",", 66, ",", 66, ",", 66, ",", 66, ",", 66, ",", 66, ",", 66, ",", 66, ",", 66, ",", 66, ",", 66, ",", 66, ",", 66, ",", 66, ",", 66, ",", 66, ",", 66, ",", 66, ",", 66, ",", 66, ",", 66, ",", 66, ",", 66, ",", 66, ",", 66, ",", 66, ",", 66, ",", 66, ",", 66, ",", 66, ",", 66, ",", 66, ",", 66, ",", 66, ",", 66, ",", 66, ",", 66, ",", 66, ",", 66, ",", 66, ",", 66, ",", 66, ",", 66, ",", 66, ",", 66, ",", 66, ",", 66, ",", 66, ",", 66, ",", 66, ",", 66, ",", 66, ",", 66, ",", 66, ",", 66, ",", 66, ",", 66, ",", 66, ",", 66, ",", 22, ",", 44, ",", 66, ",", 66, ",", 66, ",", 66, ",", 66, ",", 66, ",", 66, ",", 66, ",", 66, ",", 66, ",", 66, ",", 66, ",", 66, ",", 66, ",", 66, ",", 66, ",", 66, ",", 66, ",", 66, ",", 66, ",", 66, ",", 66, ",", 66, ",", 66, ",", 66, ",", 66, ",", 66, ",", 66, ",", 66, ",", 66, ",", 66, ",", 66, ",", 66, ",", 66, ",", 66, ",", 66, ",", 66, ",", 66, ",", 66, ",", 66, ",", 66, ",", 66, ",", 66, ",", 66, ",", 66, ",", 66, ",", 44, ",", 22, ",", 66, ",", 66, ",", 66, ",", 66, ",", 66, ",", 66, ",", 66, ",", 66, ",", 66, ",", 66, ",", 66, ",", 66, ",", 66, ",", 66, ",", 66, ",", 66, ",", 66, ",", 66, ",", 66, ",", 66, ",", 66, ",", 66, ",", 66, ",", 66, ",", 66, ",", 66, ",", 66, ",", 66, ",", 66, ",", 66, ",", 66, ",", 66, ",", 66, ",", 66, ",", 66, ",", 66, ",", 66, ",", 66, ",", 66, ",", 66, ",", 66, ",", 66, ",", 66, ",", 44, ",", 22, ",", 66, ",", 66, ",", 66, ",", 66, ",", 66, ",", 66, ",", 66, ",", 66, ",", 66, ",", 66, ",", 66, ",", 66, ",", 66, ",", 66, ",", 66, ",", 66, ",", 66, ",", 66, ",", 66, ",", 66, ",", 66, ",", 66, ",", 66, ",", 66, ",", 66, ",", 66, ",", 66, ",", 66, ",", 66, ",", 66, ",", 66, ",", 66, ",", 66, ",", 66, ",", 66, ",", 66, ",", 66, ",", 66, ",", 66, ",", 66, ",", 66, ",", 66, ",", 66, ",", 66, ",", 66, ",", 66, ",", 66, ",", 66, ",", 66, ",", 66, ",", 66, ",", 66, ",", 66, ",", 66, ",", 66, ",", 66, ",", 66, ",", 66, ",", 66, ",", 66, ",", 66, ",", 66, ",", 66, ",", 66, ",", 66, ",", 66, ",", 66, ",", 66, ",", 66, ",", 66, ",", 66, ",", 66, ",", 66, ",", 66, ",", 66, ",", 66, ",", 66, ",", 66, ",", 66, ",", 66, ",", 66, ",", 66, ",", 66, ",", 66, ",", 66, ",", 66, ",", 66, ",", 66, ",", 66, ",", 66, ",", 66, ",", 22, ",", 44, ",", 66, ",", 66, ",", 66, ",", 66, ",", 66, ",", 66, ",", 66, ",", 66, ",", 66, ",", 66, ",", 66, ",", 66, ",", 66, ",", 66, ",", 66, ",", 66, ",", 66, ",", 66, ",", 66, ",", 66, ",", 66, ",", 66, ",", 66, ",", 66, ",", 66, ",", 66, ",", 66, ",", 66, ",", 66, ",", 66, ",", 66, ",", 66, ",", 66, ",", 66, ",", 66, ",", 66, ",", 66, ",", 66, ",", 66, ",", 66, ",", 66, ",", 66, ",", 66, ",", 66, ",", 66, ",", 66, ",", 66, ",", 66, ",", 66, ",", 66, ",", 66, ",", 66, ",", 66, ",", 66, ",", 66, ",", 66, ",", 66, ",", 66, ",", 66, ",", 66, ",", 66, ",", 66, ",", 66, ",", 66, ",", 66, ",", 66, ",", 66, ",", 66, ",", 66, ",", 66, ",", 66, ",", 66, ",", 66, ",", 66, ",", 66, ",", 66, ",", 66, ",", 66, ",", 66, ",", 66, ",", 66, ",", 66, ",", 66, ",", 66, ",", 66, ",", 66, ",", 66, ",", 66, ",", 66, ",", 66, ",", 66, ",", 66, ",", 66, ",", 66, ",", 66, ",", 66, ",", 66, ",", 66, ",", 66, ",", 66, ",", 66, ",", 66, ",", 66, ",", 44, ",", 22, ",", 66, ",", 66, ",", 66, ",", 66, ",", 66, ",", 66, ",", 66, ",", 66, ",", 66, ",", 66, ",", 66, ",", 66, ",", 66, ",", 66, ",", 66, ",", 66, ",", 66, ",", 66, ",", 66, ",", 66, ",", 66, ",", 66, ",", 66, ",", 66, ",", 66, ",", 66, ",", 66, ",", 22, ",", 44, ",", 66, ",", 66, ",", 66, ",", 66, ",", 66, ",", 66, ",", 66, ",", 66, ",", 66, ",", 66, ",", 66, ",", 66, ",", 66, ",", 66, ",", 66, ",", 66, ",", 66, ",", 66, ",", 66, ",", 66, ",", 66, ",", 66, ",", 66, ",", 66, ",", 198, ",", 66, ",", 66, ",", 66, ",", 66, ",", 66, ",", 66, ",", 66, ",", 66, ",", 66, ",", 66, ",", 66, ",", 66, ",", 66, ",", 66, ",", 66, ",", 66, ",", 66, ",", 66, ",", 66, ",", 66, ",", 66, ",", 66, ",", 66, ",", 66, ",", 66, ",", 66, ",", 66, ",", 66, ",", 66, ",", 66, ",", 66, ",", 66, ",", 66, ",", 66, ",", 66, ",", 66, ",", 66, ",", 66, ",", 66, ",", 66, ",", 66, ",", 66, ",", 66, ",", 66, ",", 66, ",", 66, ",", 66, ",", 66, ",", 66, ",", 66, ",", 66, ",", 66, ",", 66, ",", 66, ",", 66, ",", 66, ",", 66, ",", 66, ",", 66, ",", 66, ",", 66, ",", 66, ",", 66, ",", 66, ",", 66, ",", 66, ",", 66, ",", 66, ",", 66, ",", 66, ",", 66, ",", 66, ",", 66, ",", 66, ",", 66, ",", 66, ",", 66, ",", 66, ",", 66, ",", 264, ",", 66, ",", 66, ",", 66, ",", 66, ",", 66, ",", 66, ",", 66, ",", 66, ",", 66, ",", 66, ",", 66, ",", 66, ",", 66, ",", 66, ",", 22, ",", 44, ",", 66, ",", 66, ",", 66, ",", 66, ",", 66, ",", 66, ",", 66, ",", 66, ",", 66, ",", 66, ",", 66, ",", 66, ",", 66, ",", 66, ",", 66, ",", 66, ",", 66, ",", 44, ",", 22, ",", 66, ",", 66, ",", 66, ",", 66, ",", 66, ",", 66, ",", 66, ",", 66, ",", 66, ",", 66, ",", 66, ",", 66, ",", 66, ",", 66, ",", 66, ",", 66, ",", 66, ",", 66, ",", 66, ",", 66, ",", 66, ",", 66, ",", 66, ",", 66, ",", 66, ",", 66, ",", 66, ",", 22, ",", 44, ",", 66, ",", 66, ",", 66, ",", 66, ",", 66, ",", 66, ",", 66, ",", 66, ",", 66, ",", 66, ",", 66, ",", 66, ",", 66, ",", 66, ",", 66, ",", 66, ",", 66, ",", 66, ",", 66, ",", 66, ",", 66, ",", 66, ",", 66, ",", 66, ",", 66, ",", 66, ",", 66, ",", 66, ",", 66, ",", 66, ",", 66, ",", 66, ",", 66, ",", 66, ",", 66, ",", 66, ",", 66, ",", 66, ",", 66, ",", 66, ",", 66, ",", 66, ",", 66, ",", 66, ",", 66, ",", 66, ",", 66, ",", 66, ",", 66, ",", 66, ",", 66, ",", 66, ",", 66, ",", 66, ",", 66, ",", 66, ",", 66, ",", 66, ",", 66, ",", 66, ",", 66, ",", 66, ",", 66, ",", 66, ",", 66, ",", 66, ",", 66, ",", 66, ",", 66, ",", 66, ",", 66, ",", 66, ",", 66, ",", 66, ",", 66, ",", 66, ",", 66, ",", 66, ",", 66, ",", 66, ",", 66, ",", 66, ",", 66, ",", 66, ",", 66, ",", 66, ",", 66, ",", 66, ",", 66, ",", 66, ",", 66, ",", 66, ",", 66, ",", 66, ",", 66, ",", 66, ",", 66, ",", 66, ",", 66, ",", 66, ",", 66, ",", 66, ",", 66, ",", 66, ",", 66, ",", 66, ",", 66, ",", 66, ",", 66, ",", 66, ",", 66, ",", 66, ",", 66, ",", 66, ",", 66, ",", 66, ",", 66, ",", 66, ",", 66, ",", 66, ",", 66, ",", 66, ",", 66, ",", 66, ",", 66, ",", 66, ",", 66, ",", 66, ",", 66, ",", 66, ",", 66, ",", 66, ",", 66, ",", 66, ",", 66, ",", 66, ",", 66, ",", 66, ",", 66, ",", 66, ",", 22, ",", 44, ",", 66, ",", 66, ",", 66, ",", 66, ",", 66, ",", 66, ",", 66, ",", 66, ",", 66, ",", 66, ",", 66, ",", 66, ",", 66, ",", 66, ",", 66, ",", 66, ",", 66, ",", 66, ",", 66, ",", 66, ",", 66, ",", 66, ",", 66, ",", 66, ",", 66, ",", 66, ",", 66, ",", 66, ",", 66, ",", 66, ",", 66, ",", 66, ",", 66, ",", 66, ",", 66, ",", 66, ",", 66, ",", 66, ",", 66, ",", 66, ",", 22, ",", 44, ",", 66, ",", 66, ",", 66, ",", 66, ",", 66, ",", 66, ",", 66, ",", 66, ",", 66, ",", 22, ",", 44, ",", 66, ",", 66, ",", 22, ",", 44, ",", 66, ",", 66, ",", 66, ",", 66, ",", 66, ",", 66, ",", 66, ",", 66, ",", 66, ",", 66, ",", 66, ",", 66, ",", 66, ",", 66, ",", 66, ",", 66, ",", 66, ",", 66, ",", 66, ",", 66, ",", 66, ",", 66, ",", 66, ",", 66, ",", 66, ",", 66, ",", 66, ",", 66, ",", 66, ",", 66, ",", 66, ",", 66, ",", 66, ",", 66, ",", 66, ",", 66, ",", 66, ",", 66, ",", 66, ",", 66, ",", 66, ",", 66, ",", 66, ",", 66, ",", 66, ",", 66, ",", 66, ",", 66, ",", 66, ",", 66, ",", 66, ",", 66, ",", 66, ",", 66, ",", 66, ",", 66, ",", 66, ",", 66, ",", 66, ",", 66, ",", 66, ",", 66, ",", 66, ",", 66, ",", 66, ",", 66, ",", 66, ",", 66, ",", 66, ",", 66, ",", 66, ",", 66, ",", 66, ",", 66, ",", 66, ",", 66, ",", 66, ",", 66, ",", 66, ",", 66, ",", 66, ",", 66, ",", 66, ",", 66, ",", 66, ",", 66, ",", 66, ",", 66, ",", 66, ",", 66, ",", 66, ",", 66, ",", 66, ",", 66, ",", 66, ",", 66, ",", 66, ",", 66, ",", 66, ",", 66, ",", 66, ",", 66, ",", 66, ",", 66, ",", 66, ",", 66, ",", 66, ",", 66, ",", 66, ",", 66, ",", 66, ",", 66, ",", 66, ",", 66, ",", 66, ",", 66, ",", 66, ",", 66, ",", 66, ",", 66, ",", 66, ",", 66, ",", 66, ",", 66, ",", 66, ",", 66, ",", 66, ",", 66, ",", 66, ",", 66, ",", 66, ",", 66, ",", 66, ",", 66, ",", 66, ",", 66, ",", 66, ",", 66, ",", 66, ",", 66, ",", 66, ",", 66, ",", 66, ",", 66, ",", 66, ",", 66, ",", 66, ",", 66, ",", 66, ",", 66, ",", 66, ",", 66, ",", 66, ",", 66, ",", 66, ",", 66, ",", 66, ",", 66, ",", 66, ",", 66, ",", 66, ",", 66, ",", 66, ",", 66, ",", 66, ",", 66, ",", 66, ",", 66, ",", 66, ",", 66, ",", 66, ",", 44, ",", 22, ",", 66, ",", 66, ",", 66, ",", 66, ",", 66, ",", 66, ",", 66, ",", 44, ",", 22, ",", 66, ",", 66, ",", 66, ",", 66, ",", 66, ",", 66, ",", 66, ",", 66, ",", 66, ",", 66, ",", 66, ",", 66, ",", 66, ",", 66, ",", 66, ",", 66, ",", 66, ",", 66, ",", 66, ",", 66, ",", 66, ",", 66, ",", 66, ",", 66, ",", 66, ",", 66, ",", 66, ",", 66, ",", 66, ",", 66, ",", 66, ",", 66, ",", 66, ",", 66, ",", 66, ",", 66, ",", 66, ",", 66, ",", 66, ",", 66, ",", 66, ",", 66, ",", 66, ",", 66, ",", 66, ",", 66, ",", 22, ",", 44, ",", 66, ",", 66, ",", 66, ",", 66, ",", 66, ",", 66, ",", 66, ",", 66, ",", 66, ",", 66, ",", 66, ",", 66, ",", 66, ",", 66, ",", 66, ",", 66, ",", 66, ",", 66, ",", 66, ",", 66, ",", 66, ",", 66, ",", 66, ",", 66, ",", 66, ",", 66, ",", 66, ",", 66, ",", 66, ",", 66, ",", 66, ",", 66, ",", 66, ",", 66, ",", 66, ",", 66, ",", 66, ",", 66, ",", 66, ",", 66, ",", 66, ",", 66, ",", 66, ",", 66, ",", 66, ",", 66, ",", 132, ",", 66, ",", 66, ",", 66, ",", 66, ",", 66, ",", 66, ",", 66, ",", 66, ",", 66, ",", 66, ",", 66, ",", 66, ",", 66, ",", 66, ",", 66, ",", 66, ",", 66, ",", 66, ",", 66, ",", 66, ",", 66, ",", 66, ",", 66, ",", 66, ",", 66, ",", 66, ",", 66, ",", 66, ",", 66, ",", 66, ",", 66, ",", 66, ",", 66, ",", 66, ",", 66, ",", 66, ",", 66, ",", 66, ",", 66, ",", 66, ",", 66, ",", 66, ",", 66, ",", 66, ",", 66, ",", 66, ",", 66, ",", 66, ",", 66, ",", 66, ",", 66, ",", 66, ",", 66, ",", 66, ",", 66, ",", 66, ",", 66, ",", 66, ",", 66, ",", 66, ",", 66, ",", 66, ",", 66, ",", 66, ",", 66, ",", 66, ",", 66, ",", 66, ",", 66, ",", 66, ",", 66, ",", 66, ",", 66, ",", 66, ",", 66, ",", 66, ",", 66, ",", 66, ",", 66, ",", 66, ",", 66, ",", 66, ",", 66, ",", 66, ",", 66, ",", 66, ",", 66, ",", 66, ",", 66, ",", 66, ",", 66, ",", 66, ",", 66, ",", 66, ",", 66, ",", 66, ",", 66, ",", 66, ",", 66, ",", 66, ",", 66, ",", 66, ",", 66, ",", 66, ",", 66, ",", 66, ",", 66, ",", 66, ",", 66, ",", 66, ",", 66, ",", 66, ",", 66, ",", 66, ",", 66, ",", 66, ",", 66, ",", 66, ",", 66, ",", 66, ",", 66, ",", 66, ",", 66, ",", 66, ",", 66, ",", 66, ",", 66, ",", 66, ",", 66, ",", 66, ",", 66, ",", 66, ",", 66, ",", 66, ",", 66, ",", 66, ",", 66, ",", 66, ",", 66, ",", 66, ",", 66, ",", 66, ",", 66, ",", 66, ",", 66, ",", 66, ",", 66, ",", 66, ",", 66, ",", 66, ",", 66, ",", 66, ",", 66, ",", 66, ",", 66, ",", 66, ",", 66, ",", 66, ",", 66, ",", 66, ",", 66, ",", 66, ",", 66, ",", 66, ",", 66, ",", 66, ",", 66, ",", 198, ",", 66, ",", 66, ",", 66, ",", 66, ",", 66, ",", 66, ",", 66, ",", 66, ",", 66, ",", 66, ",", 66, ",", 66, ",", 66, ",", 66, ",", 66, ",", 66, ",", 66, ",", 66, ",", 66, ",", 66, ",", 66, ",", 66, ",", 66, ",", 66, ",", 66, ",", 66 ],
									"maxclass" : "umenu",
									"numinlets" : 1,
									"numoutlets" : 3,
									"outlettype" : [ "int", "", "" ],
									"parameter_enable" : 0,
									"patching_rect" : [ 285.0, 357.0, 124.0, 22.0 ],
									"textcolor" : [ 0.0, 0.0, 0.0, 1.0 ]
								}

							}
, 							{
								"box" : 								{
									"fontname" : "Arial",
									"fontsize" : 9.0,
									"id" : "obj-31",
									"maxclass" : "message",
									"numinlets" : 2,
									"numoutlets" : 1,
									"outlettype" : [ "" ],
									"patching_rect" : [ 285.0, 383.0, 50.0, 19.0 ],
									"text" : "serport $1"
								}

							}
, 							{
								"box" : 								{
									"fontname" : "Arial",
									"fontsize" : 9.0,
									"id" : "obj-6",
									"maxclass" : "message",
									"numinlets" : 2,
									"numoutlets" : 1,
									"outlettype" : [ "" ],
									"patching_rect" : [ 55.0, 350.0, 32.5, 19.0 ],
									"text" : "print"
								}

							}
, 							{
								"box" : 								{
									"fontname" : "Arial",
									"fontsize" : 9.0,
									"id" : "obj-20",
									"maxclass" : "message",
									"numinlets" : 2,
									"numoutlets" : 1,
									"outlettype" : [ "" ],
									"patching_rect" : [ 55.0, 392.0, 39.0, 19.0 ],
									"text" : "refresh"
								}

							}
, 							{
								"box" : 								{
									"color" : [ 0.75, 0.75, 0.75, 1.0 ],
									"fontname" : "Arial",
									"fontsize" : 12.0,
									"id" : "obj-7",
									"maxclass" : "newobj",
									"numinlets" : 1,
									"numoutlets" : 1,
									"outlettype" : [ "" ],
									"patcher" : 									{
										"fileversion" : 1,
										"appversion" : 										{
											"major" : 9,
											"minor" : 0,
											"revision" : 7,
											"architecture" : "x64",
											"modernui" : 1
										}
,
										"classnamespace" : "box",
										"rect" : [ 1280.0, 608.0, 289.0, 316.0 ],
										"default_fontsize" : 9.0,
										"gridsize" : [ 15.0, 15.0 ],
										"statusbarvisible" : 0,
										"boxes" : [ 											{
												"box" : 												{
													"comment" : "",
													"id" : "obj-38",
													"index" : 1,
													"maxclass" : "outlet",
													"numinlets" : 1,
													"numoutlets" : 0,
													"patching_rect" : [ 94.0, 279.600006000000008, 19.0, 19.0 ]
												}

											}
, 											{
												"box" : 												{
													"color" : [ 0.75, 0.75, 0.75, 1.0 ],
													"fontname" : "Arial",
													"fontsize" : 9.0,
													"id" : "obj-37",
													"maxclass" : "newobj",
													"numinlets" : 2,
													"numoutlets" : 1,
													"outlettype" : [ "int" ],
													"patching_rect" : [ 42.0, 145.142853000000002, 32.0, 19.0 ],
													"text" : "+ 1"
												}

											}
, 											{
												"box" : 												{
													"fontname" : "Arial",
													"fontsize" : 9.0,
													"id" : "obj-28",
													"maxclass" : "comment",
													"numinlets" : 1,
													"numoutlets" : 0,
													"patching_rect" : [ 132.0, 288.600006000000008, 50.0, 17.0 ],
													"text" : "databits 8"
												}

											}
, 											{
												"box" : 												{
													"fontname" : "Arial",
													"fontsize" : 9.0,
													"id" : "obj-25",
													"maxclass" : "comment",
													"numinlets" : 1,
													"numoutlets" : 0,
													"patching_rect" : [ 132.0, 271.600006000000008, 74.0, 17.0 ],
													"text" : "buffer size 2048"
												}

											}
, 											{
												"box" : 												{
													"fontname" : "Arial",
													"fontsize" : 9.0,
													"id" : "obj-24",
													"maxclass" : "comment",
													"numinlets" : 1,
													"numoutlets" : 0,
													"patching_rect" : [ 132.0, 254.600006000000008, 80.0, 17.0 ],
													"text" : "baud rate 115200"
												}

											}
, 											{
												"box" : 												{
													"color" : [ 0.75, 0.75, 0.75, 1.0 ],
													"fontname" : "Arial",
													"fontsize" : 9.0,
													"id" : "obj-13",
													"maxclass" : "newobj",
													"numinlets" : 1,
													"numoutlets" : 2,
													"outlettype" : [ "int", "" ],
													"patching_rect" : [ 42.0, 253.142853000000002, 71.0, 19.0 ],
													"text" : "serial a 115200"
												}

											}
, 											{
												"box" : 												{
													"color" : [ 0.75, 0.75, 0.75, 1.0 ],
													"fontname" : "Arial",
													"fontsize" : 9.0,
													"id" : "obj-9",
													"maxclass" : "newobj",
													"numinlets" : 1,
													"numoutlets" : 1,
													"outlettype" : [ "" ],
													"patching_rect" : [ 42.0, 226.142853000000002, 58.0, 19.0 ],
													"text" : "append 231"
												}

											}
, 											{
												"box" : 												{
													"color" : [ 0.75, 0.75, 0.75, 1.0 ],
													"fontname" : "Arial",
													"fontsize" : 9.0,
													"id" : "obj-8",
													"maxclass" : "newobj",
													"numinlets" : 2,
													"numoutlets" : 2,
													"outlettype" : [ "", "" ],
													"patching_rect" : [ 42.0, 199.142853000000002, 45.0, 19.0 ],
													"text" : "zl join"
												}

											}
, 											{
												"box" : 												{
													"fontname" : "Arial",
													"fontsize" : 9.0,
													"id" : "obj-7",
													"maxclass" : "message",
													"numinlets" : 2,
													"numoutlets" : 1,
													"outlettype" : [ "" ],
													"patching_rect" : [ 42.0, 172.142853000000002, 61.0, 19.0 ],
													"text" : "126 6 $1 0 0"
												}

											}
, 											{
												"box" : 												{
													"color" : [ 0.75, 0.75, 0.75, 1.0 ],
													"fontname" : "Arial",
													"fontsize" : 9.0,
													"id" : "obj-5",
													"maxclass" : "newobj",
													"numinlets" : 2,
													"numoutlets" : 2,
													"outlettype" : [ "", "" ],
													"patching_rect" : [ 42.0, 118.142859999999999, 32.0, 19.0 ],
													"text" : "zl len"
												}

											}
, 											{
												"box" : 												{
													"color" : [ 0.75, 0.75, 0.75, 1.0 ],
													"fontname" : "Arial",
													"fontsize" : 9.0,
													"id" : "obj-4",
													"maxclass" : "newobj",
													"numinlets" : 1,
													"numoutlets" : 2,
													"outlettype" : [ "", "" ],
													"patching_rect" : [ 42.0, 91.142859999999999, 45.0, 19.0 ],
													"text" : "t l l"
												}

											}
, 											{
												"box" : 												{
													"color" : [ 0.75, 0.75, 0.75, 1.0 ],
													"fontname" : "Arial",
													"fontsize" : 9.0,
													"id" : "obj-2",
													"maxclass" : "newobj",
													"numinlets" : 2,
													"numoutlets" : 2,
													"outlettype" : [ "", "" ],
													"patching_rect" : [ 42.0, 64.0, 145.0, 19.0 ],
													"text" : "route list"
												}

											}
, 											{
												"box" : 												{
													"comment" : "",
													"id" : "obj-1",
													"index" : 1,
													"maxclass" : "inlet",
													"numinlets" : 0,
													"numoutlets" : 1,
													"outlettype" : [ "print" ],
													"patching_rect" : [ 42.0, 35.0, 19.0, 19.0 ]
												}

											}
 ],
										"lines" : [ 											{
												"patchline" : 												{
													"color" : [ 0.0, 0.0, 0.0, 0.9 ],
													"destination" : [ "obj-2", 0 ],
													"source" : [ "obj-1", 0 ]
												}

											}
, 											{
												"patchline" : 												{
													"color" : [ 0.0, 0.0, 0.0, 1.0 ],
													"destination" : [ "obj-38", 0 ],
													"source" : [ "obj-13", 1 ]
												}

											}
, 											{
												"patchline" : 												{
													"color" : [ 0.0, 0.0, 0.0, 1.0 ],
													"destination" : [ "obj-13", 0 ],
													"midpoints" : [ 177.5, 248.571426000000002, 51.5, 248.571426000000002 ],
													"source" : [ "obj-2", 1 ]
												}

											}
, 											{
												"patchline" : 												{
													"color" : [ 0.0, 0.0, 0.0, 1.0 ],
													"destination" : [ "obj-4", 0 ],
													"source" : [ "obj-2", 0 ]
												}

											}
, 											{
												"patchline" : 												{
													"color" : [ 0.0, 0.0, 0.0, 1.0 ],
													"destination" : [ "obj-7", 0 ],
													"source" : [ "obj-37", 0 ]
												}

											}
, 											{
												"patchline" : 												{
													"color" : [ 0.0, 0.0, 0.0, 1.0 ],
													"destination" : [ "obj-5", 0 ],
													"source" : [ "obj-4", 0 ]
												}

											}
, 											{
												"patchline" : 												{
													"color" : [ 0.0, 0.0, 0.0, 1.0 ],
													"destination" : [ "obj-8", 1 ],
													"source" : [ "obj-4", 1 ]
												}

											}
, 											{
												"patchline" : 												{
													"color" : [ 0.0, 0.0, 0.0, 1.0 ],
													"destination" : [ "obj-37", 0 ],
													"source" : [ "obj-5", 0 ]
												}

											}
, 											{
												"patchline" : 												{
													"color" : [ 0.0, 0.0, 0.0, 1.0 ],
													"destination" : [ "obj-8", 0 ],
													"source" : [ "obj-7", 0 ]
												}

											}
, 											{
												"patchline" : 												{
													"color" : [ 0.0, 0.0, 0.0, 1.0 ],
													"destination" : [ "obj-9", 0 ],
													"source" : [ "obj-8", 0 ]
												}

											}
, 											{
												"patchline" : 												{
													"color" : [ 0.0, 0.0, 0.0, 1.0 ],
													"destination" : [ "obj-13", 0 ],
													"source" : [ "obj-9", 0 ]
												}

											}
 ]
									}
,
									"patching_rect" : [ 121.0, 417.0, 91.0, 22.0 ],
									"saved_object_attributes" : 									{
										"fontsize" : 9.0
									}
,
									"text" : "p DMXUSBPro"
								}

							}
 ],
						"lines" : [ 							{
								"patchline" : 								{
									"destination" : [ "obj-4", 0 ],
									"midpoints" : [ 331.5, 294.0, 331.5, 294.0 ],
									"source" : [ "obj-1", 0 ]
								}

							}
, 							{
								"patchline" : 								{
									"destination" : [ "obj-35", 0 ],
									"midpoints" : [ 163.0, 93.0, 200.5, 93.0 ],
									"source" : [ "obj-10", 0 ]
								}

							}
, 							{
								"patchline" : 								{
									"destination" : [ "obj-18", 0 ],
									"order" : 2,
									"source" : [ "obj-12", 0 ]
								}

							}
, 							{
								"patchline" : 								{
									"destination" : [ "obj-8", 15 ],
									"midpoints" : [ 466.5, 177.0, 527.1875, 177.0 ],
									"order" : 0,
									"source" : [ "obj-12", 0 ]
								}

							}
, 							{
								"patchline" : 								{
									"destination" : [ "obj-8", 11 ],
									"midpoints" : [ 466.5, 177.0, 421.9375, 177.0 ],
									"order" : 1,
									"source" : [ "obj-12", 0 ]
								}

							}
, 							{
								"patchline" : 								{
									"destination" : [ "obj-8", 7 ],
									"midpoints" : [ 466.5, 177.0, 316.6875, 177.0 ],
									"order" : 3,
									"source" : [ "obj-12", 0 ]
								}

							}
, 							{
								"patchline" : 								{
									"destination" : [ "obj-8", 3 ],
									"midpoints" : [ 466.5, 177.0, 211.4375, 177.0 ],
									"order" : 4,
									"source" : [ "obj-12", 0 ]
								}

							}
, 							{
								"patchline" : 								{
									"destination" : [ "obj-36", 0 ],
									"midpoints" : [ 210.5, 93.0, 277.5, 93.0 ],
									"source" : [ "obj-13", 0 ]
								}

							}
, 							{
								"patchline" : 								{
									"destination" : [ "obj-47", 0 ],
									"midpoints" : [ 258.0, 93.0, 353.5, 93.0 ],
									"source" : [ "obj-14", 0 ]
								}

							}
, 							{
								"patchline" : 								{
									"color" : [ 0.0, 0.0, 0.0, 1.0 ],
									"destination" : [ "obj-7", 0 ],
									"midpoints" : [ 64.5, 423.0, 108.0, 423.0, 108.0, 414.0, 130.5, 414.0 ],
									"source" : [ "obj-20", 0 ]
								}

							}
, 							{
								"patchline" : 								{
									"destination" : [ "obj-8", 2 ],
									"midpoints" : [ 170.5, 177.0, 185.125, 177.0 ],
									"source" : [ "obj-23", 2 ]
								}

							}
, 							{
								"patchline" : 								{
									"destination" : [ "obj-8", 1 ],
									"midpoints" : [ 147.5, 177.0, 158.8125, 177.0 ],
									"source" : [ "obj-23", 1 ]
								}

							}
, 							{
								"patchline" : 								{
									"destination" : [ "obj-8", 0 ],
									"midpoints" : [ 124.5, 177.0, 132.5, 177.0 ],
									"source" : [ "obj-23", 0 ]
								}

							}
, 							{
								"patchline" : 								{
									"color" : [ 0.0, 0.0, 0.0, 0.9 ],
									"destination" : [ "obj-31", 0 ],
									"midpoints" : [ 294.5, 381.0, 294.5, 381.0 ],
									"source" : [ "obj-30", 0 ]
								}

							}
, 							{
								"patchline" : 								{
									"color" : [ 0.0, 0.0, 0.0, 1.0 ],
									"destination" : [ "obj-7", 0 ],
									"midpoints" : [ 294.5, 414.0, 130.5, 414.0 ],
									"source" : [ "obj-31", 0 ]
								}

							}
, 							{
								"patchline" : 								{
									"color" : [ 0.0, 0.0, 0.0, 1.0 ],
									"destination" : [ "obj-30", 0 ],
									"midpoints" : [ 233.5, 405.0, 270.0, 405.0, 270.0, 354.0, 294.5, 354.0 ],
									"source" : [ "obj-32", 1 ]
								}

							}
, 							{
								"patchline" : 								{
									"color" : [ 0.0, 0.0, 0.0, 1.0 ],
									"destination" : [ "obj-7", 0 ],
									"midpoints" : [ 152.5, 405.0, 130.5, 405.0 ],
									"source" : [ "obj-32", 0 ]
								}

							}
, 							{
								"patchline" : 								{
									"color" : [ 0.0, 0.0, 0.0, 1.0 ],
									"destination" : [ "obj-30", 0 ],
									"midpoints" : [ 156.5, 525.0, 270.0, 525.0, 270.0, 354.0, 294.5, 354.0 ],
									"source" : [ "obj-33", 0 ]
								}

							}
, 							{
								"patchline" : 								{
									"destination" : [ "obj-8", 6 ],
									"midpoints" : [ 246.5, 177.0, 290.375, 177.0 ],
									"source" : [ "obj-35", 2 ]
								}

							}
, 							{
								"patchline" : 								{
									"destination" : [ "obj-8", 5 ],
									"midpoints" : [ 223.5, 177.0, 264.0625, 177.0 ],
									"source" : [ "obj-35", 1 ]
								}

							}
, 							{
								"patchline" : 								{
									"destination" : [ "obj-8", 4 ],
									"midpoints" : [ 200.5, 177.0, 237.75, 177.0 ],
									"source" : [ "obj-35", 0 ]
								}

							}
, 							{
								"patchline" : 								{
									"destination" : [ "obj-8", 10 ],
									"midpoints" : [ 323.5, 177.0, 395.625, 177.0 ],
									"source" : [ "obj-36", 2 ]
								}

							}
, 							{
								"patchline" : 								{
									"destination" : [ "obj-8", 9 ],
									"midpoints" : [ 300.5, 177.0, 369.3125, 177.0 ],
									"source" : [ "obj-36", 1 ]
								}

							}
, 							{
								"patchline" : 								{
									"destination" : [ "obj-8", 8 ],
									"midpoints" : [ 277.5, 177.0, 343.0, 177.0 ],
									"source" : [ "obj-36", 0 ]
								}

							}
, 							{
								"patchline" : 								{
									"color" : [ 0.0, 0.0, 0.0, 1.0 ],
									"destination" : [ "obj-33", 0 ],
									"midpoints" : [ 156.5, 489.0, 156.5, 489.0 ],
									"source" : [ "obj-37", 0 ]
								}

							}
, 							{
								"patchline" : 								{
									"color" : [ 0.0, 0.0, 0.0, 1.0 ],
									"destination" : [ "obj-37", 0 ],
									"midpoints" : [ 156.5, 465.0, 156.5, 465.0 ],
									"source" : [ "obj-39", 1 ]
								}

							}
, 							{
								"patchline" : 								{
									"destination" : [ "obj-30", 0 ],
									"midpoints" : [ 331.5, 327.0, 294.5, 327.0 ],
									"source" : [ "obj-4", 0 ]
								}

							}
, 							{
								"patchline" : 								{
									"color" : [ 0.0, 0.0, 0.0, 1.0 ],
									"destination" : [ "obj-32", 0 ],
									"midpoints" : [ 152.5, 375.0, 152.5, 375.0 ],
									"source" : [ "obj-41", 0 ]
								}

							}
, 							{
								"patchline" : 								{
									"color" : [ 0.0, 0.0, 0.0, 1.0 ],
									"destination" : [ "obj-7", 0 ],
									"midpoints" : [ 64.5, 393.0, 42.0, 393.0, 42.0, 423.0, 108.0, 423.0, 108.0, 414.0, 130.5, 414.0 ],
									"source" : [ "obj-42", 0 ]
								}

							}
, 							{
								"patchline" : 								{
									"color" : [ 0.0, 0.0, 0.0, 1.0 ],
									"destination" : [ "obj-7", 0 ],
									"midpoints" : [ 64.5, 348.0, 42.0, 348.0, 42.0, 423.0, 108.0, 423.0, 108.0, 414.0, 130.5, 414.0 ],
									"source" : [ "obj-46", 0 ]
								}

							}
, 							{
								"patchline" : 								{
									"destination" : [ "obj-8", 14 ],
									"midpoints" : [ 399.5, 177.0, 500.875, 177.0 ],
									"source" : [ "obj-47", 2 ]
								}

							}
, 							{
								"patchline" : 								{
									"destination" : [ "obj-8", 13 ],
									"midpoints" : [ 376.5, 177.0, 474.5625, 177.0 ],
									"source" : [ "obj-47", 1 ]
								}

							}
, 							{
								"patchline" : 								{
									"destination" : [ "obj-8", 12 ],
									"midpoints" : [ 353.5, 177.0, 448.25, 177.0 ],
									"source" : [ "obj-47", 0 ]
								}

							}
, 							{
								"patchline" : 								{
									"destination" : [ "obj-30", 0 ],
									"midpoints" : [ 498.5, 414.0, 270.0, 414.0, 270.0, 354.0, 294.5, 354.0 ],
									"source" : [ "obj-5", 0 ]
								}

							}
, 							{
								"patchline" : 								{
									"color" : [ 0.0, 0.0, 0.0, 1.0 ],
									"destination" : [ "obj-7", 0 ],
									"midpoints" : [ 64.5, 372.0, 42.0, 372.0, 42.0, 423.0, 108.0, 423.0, 108.0, 414.0, 130.5, 414.0 ],
									"source" : [ "obj-6", 0 ]
								}

							}
, 							{
								"patchline" : 								{
									"color" : [ 0.0, 0.0, 0.0, 1.0 ],
									"destination" : [ "obj-39", 0 ],
									"midpoints" : [ 130.5, 441.0, 130.5, 441.0 ],
									"source" : [ "obj-7", 0 ]
								}

							}
, 							{
								"patchline" : 								{
									"destination" : [ "obj-3", 1 ],
									"midpoints" : [ 132.5, 213.0, 116.5, 213.0 ],
									"order" : 1,
									"source" : [ "obj-8", 0 ]
								}

							}
, 							{
								"patchline" : 								{
									"destination" : [ "obj-7", 0 ],
									"midpoints" : [ 132.5, 339.0, 130.5, 339.0 ],
									"order" : 0,
									"source" : [ "obj-8", 0 ]
								}

							}
, 							{
								"patchline" : 								{
									"destination" : [ "obj-23", 0 ],
									"midpoints" : [ 123.5, 42.0, 124.5, 42.0 ],
									"source" : [ "obj-9", 0 ]
								}

							}
 ]
					}
,
					"patching_rect" : [ 148.0, 539.0, 61.0, 22.0 ],
					"text" : "p DMX"
				}

			}
, 			{
				"box" : 				{
					"id" : "obj-38",
					"linecount" : 2,
					"maxclass" : "comment",
					"numinlets" : 1,
					"numoutlets" : 0,
					"patching_rect" : [ 82.0, 123.0, 137.0, 33.0 ],
					"text" : "for finding new colours to paste into colours.txt"
				}

			}
, 			{
				"box" : 				{
					"id" : "obj-36",
					"linecount" : 5,
					"maxclass" : "comment",
					"numinlets" : 1,
					"numoutlets" : 0,
					"patching_rect" : [ 457.0, 8.0, 523.0, 74.0 ],
					"text" : "Control 2 DMX lights using RGB values stored in a coll (face-projection-aux: colours.txt) and use randomisation with preset speeds and amounts (jigglers). Sequence all of this via the IAC buss using MIDI programme changes.\n\nm@michael-edwards.org ~ August 2025",
					"textcolor" : [ 0.129411764705882, 0.129411764705882, 0.125490196078431, 1.0 ]
				}

			}
, 			{
				"box" : 				{
					"id" : "obj-25",
					"ignoreclick" : 1,
					"maxclass" : "number",
					"numinlets" : 1,
					"numoutlets" : 2,
					"outlettype" : [ "", "bang" ],
					"parameter_enable" : 0,
					"patching_rect" : [ 500.0, 190.0, 33.0, 22.0 ],
					"triangle" : 0
				}

			}
, 			{
				"box" : 				{
					"id" : "obj-31",
					"ignoreclick" : 1,
					"maxclass" : "number",
					"numinlets" : 1,
					"numoutlets" : 2,
					"outlettype" : [ "", "bang" ],
					"parameter_enable" : 0,
					"patching_rect" : [ 462.0, 190.0, 33.0, 22.0 ],
					"triangle" : 0
				}

			}
, 			{
				"box" : 				{
					"id" : "obj-32",
					"maxclass" : "comment",
					"numinlets" : 1,
					"numoutlets" : 0,
					"patching_rect" : [ 647.0, 360.0, 266.0, 20.0 ],
					"text" : "jiggle % and speed (millisecs) (just 1, for testing)"
				}

			}
, 			{
				"box" : 				{
					"format" : 6,
					"id" : "obj-29",
					"maxclass" : "flonum",
					"numinlets" : 1,
					"numoutlets" : 2,
					"outlettype" : [ "", "bang" ],
					"parameter_enable" : 0,
					"patching_rect" : [ 716.0, 382.0, 50.0, 22.0 ]
				}

			}
, 			{
				"box" : 				{
					"format" : 6,
					"id" : "obj-30",
					"maxclass" : "flonum",
					"maximum" : 100.0,
					"minimum" : 0.0,
					"numinlets" : 1,
					"numoutlets" : 2,
					"outlettype" : [ "", "bang" ],
					"parameter_enable" : 0,
					"patching_rect" : [ 647.0, 382.0, 50.0, 22.0 ]
				}

			}
, 			{
				"box" : 				{
					"id" : "obj-27",
					"maxclass" : "message",
					"numinlets" : 2,
					"numoutlets" : 1,
					"outlettype" : [ "" ],
					"patching_rect" : [ 189.5, 359.0, 29.5, 22.0 ],
					"text" : "0"
				}

			}
, 			{
				"box" : 				{
					"id" : "obj-1",
					"maxclass" : "newobj",
					"numinlets" : 1,
					"numoutlets" : 2,
					"outlettype" : [ "", "int" ],
					"patching_rect" : [ 22.0, 232.0, 29.5, 22.0 ],
					"text" : "t l 0"
				}

			}
, 			{
				"box" : 				{
					"id" : "obj-22",
					"maxclass" : "number",
					"numinlets" : 1,
					"numoutlets" : 2,
					"outlettype" : [ "", "bang" ],
					"parameter_enable" : 0,
					"patching_rect" : [ 642.0, 221.0, 50.0, 22.0 ]
				}

			}
, 			{
				"box" : 				{
					"id" : "obj-28",
					"linecount" : 2,
					"maxclass" : "comment",
					"numinlets" : 1,
					"numoutlets" : 0,
					"patching_rect" : [ 387.0, 228.0, 63.0, 33.0 ],
					"text" : "fullscreen windows"
				}

			}
, 			{
				"box" : 				{
					"id" : "obj-26",
					"maxclass" : "comment",
					"numinlets" : 1,
					"numoutlets" : 0,
					"patching_rect" : [ 422.0, 373.0, 95.0, 20.0 ],
					"text" : "fade times 1 & 2"
				}

			}
, 			{
				"box" : 				{
					"id" : "obj-24",
					"maxclass" : "number",
					"numinlets" : 1,
					"numoutlets" : 2,
					"outlettype" : [ "", "bang" ],
					"parameter_enable" : 0,
					"patching_rect" : [ 367.0, 372.0, 50.0, 22.0 ]
				}

			}
, 			{
				"box" : 				{
					"id" : "obj-21",
					"maxclass" : "number",
					"numinlets" : 1,
					"numoutlets" : 2,
					"outlettype" : [ "", "bang" ],
					"parameter_enable" : 0,
					"patching_rect" : [ 314.0, 372.0, 50.0, 22.0 ]
				}

			}
, 			{
				"box" : 				{
					"id" : "obj-19",
					"ignoreclick" : 1,
					"maxclass" : "number",
					"numinlets" : 1,
					"numoutlets" : 2,
					"outlettype" : [ "", "bang" ],
					"parameter_enable" : 0,
					"patching_rect" : [ 422.0, 190.0, 33.0, 22.0 ],
					"triangle" : 0
				}

			}
, 			{
				"box" : 				{
					"id" : "obj-17",
					"ignoreclick" : 1,
					"maxclass" : "number",
					"numinlets" : 1,
					"numoutlets" : 2,
					"outlettype" : [ "", "bang" ],
					"parameter_enable" : 0,
					"patching_rect" : [ 384.0, 190.0, 33.0, 22.0 ],
					"triangle" : 0
				}

			}
, 			{
				"box" : 				{
					"id" : "obj-9",
					"ignoreclick" : 1,
					"maxclass" : "number",
					"numinlets" : 1,
					"numoutlets" : 2,
					"outlettype" : [ "", "bang" ],
					"parameter_enable" : 0,
					"patching_rect" : [ 346.0, 190.0, 33.0, 22.0 ],
					"triangle" : 0
				}

			}
, 			{
				"box" : 				{
					"id" : "obj-4",
					"ignoreclick" : 1,
					"maxclass" : "number",
					"numinlets" : 1,
					"numoutlets" : 2,
					"outlettype" : [ "", "bang" ],
					"parameter_enable" : 0,
					"patching_rect" : [ 308.0, 190.0, 33.0, 22.0 ],
					"triangle" : 0
				}

			}
, 			{
				"box" : 				{
					"id" : "obj-20",
					"maxclass" : "number",
					"numinlets" : 1,
					"numoutlets" : 2,
					"outlettype" : [ "", "bang" ],
					"parameter_enable" : 0,
					"patching_rect" : [ 202.0, 382.0, 50.0, 22.0 ]
				}

			}
, 			{
				"box" : 				{
					"id" : "obj-18",
					"maxclass" : "comment",
					"numinlets" : 1,
					"numoutlets" : 0,
					"patching_rect" : [ 397.0, 274.0, 99.0, 20.0 ],
					"text" : "rgb scalers 1 & 2"
				}

			}
, 			{
				"box" : 				{
					"format" : 6,
					"id" : "obj-16",
					"maxclass" : "flonum",
					"maximum" : 2.0,
					"minimum" : 0.0,
					"numinlets" : 1,
					"numoutlets" : 2,
					"outlettype" : [ "", "bang" ],
					"parameter_enable" : 0,
					"patching_rect" : [ 452.0, 300.0, 50.0, 22.0 ]
				}

			}
, 			{
				"box" : 				{
					"format" : 6,
					"id" : "obj-11",
					"maxclass" : "flonum",
					"maximum" : 2.0,
					"minimum" : 0.0,
					"numinlets" : 1,
					"numoutlets" : 2,
					"outlettype" : [ "", "bang" ],
					"parameter_enable" : 0,
					"patching_rect" : [ 397.0, 300.0, 50.0, 22.0 ]
				}

			}
, 			{
				"box" : 				{
					"id" : "obj-6",
					"maxclass" : "toggle",
					"numinlets" : 1,
					"numoutlets" : 1,
					"outlettype" : [ "int" ],
					"parameter_enable" : 0,
					"patching_rect" : [ 360.0, 237.0, 24.0, 24.0 ]
				}

			}
, 			{
				"box" : 				{
					"id" : "obj-41",
					"maxclass" : "button",
					"numinlets" : 1,
					"numoutlets" : 1,
					"outlettype" : [ "bang" ],
					"parameter_enable" : 0,
					"patching_rect" : [ 240.0, 237.0, 24.0, 24.0 ]
				}

			}
, 			{
				"box" : 				{
					"id" : "obj-37",
					"maxclass" : "newobj",
					"numinlets" : 2,
					"numoutlets" : 2,
					"outlettype" : [ "", "" ],
					"patching_rect" : [ 240.0, 346.0, 59.0, 22.0 ],
					"text" : "route text"
				}

			}
, 			{
				"box" : 				{
					"id" : "obj-34",
					"keymode" : 1,
					"maxclass" : "textedit",
					"numinlets" : 1,
					"numoutlets" : 4,
					"outlettype" : [ "", "int", "", "" ],
					"parameter_enable" : 0,
					"patching_rect" : [ 240.0, 283.0, 100.0, 50.0 ],
					"text" : "1 0 0"
				}

			}
, 			{
				"box" : 				{
					"id" : "obj-3",
					"maxclass" : "comment",
					"numinlets" : 1,
					"numoutlets" : 0,
					"patching_rect" : [ 115.0, 383.0, 82.0, 20.0 ],
					"text" : "colour indices"
				}

			}
, 			{
				"box" : 				{
					"id" : "obj-15",
					"maxclass" : "number",
					"numinlets" : 1,
					"numoutlets" : 2,
					"outlettype" : [ "", "bang" ],
					"parameter_enable" : 0,
					"patching_rect" : [ 65.0, 382.0, 50.0, 22.0 ]
				}

			}
, 			{
				"box" : 				{
					"id" : "obj-10",
					"maxclass" : "newobj",
					"numinlets" : 7,
					"numoutlets" : 1,
					"outlettype" : [ "" ],
					"patching_rect" : [ 219.0, 428.0, 111.0, 22.0 ],
					"text" : "face-projection-aux"
				}

			}
, 			{
				"box" : 				{
					"id" : "obj-7",
					"maxclass" : "newobj",
					"numinlets" : 7,
					"numoutlets" : 1,
					"outlettype" : [ "" ],
					"patching_rect" : [ 53.0, 428.0, 111.0, 22.0 ],
					"text" : "face-projection-aux"
				}

			}
, 			{
				"box" : 				{
					"id" : "obj-57",
					"linecount" : 8,
					"maxclass" : "comment",
					"numinlets" : 1,
					"numoutlets" : 0,
					"patching_rect" : [ 666.0, 101.0, 314.0, 114.0 ],
					"text" : "channel 1 and 2 prog. nos. set the colour via the coll in the colours subpatch\n\nchannel 3 and 4 prog. nos. set the fade time directly (for face-projection 1 and 2) as a value in seconds so range is 1 sec to 2mins7 (127)\n\nchannel 5 and 6 prog. nos. set the jiggler preset numbers"
				}

			}
, 			{
				"box" : 				{
					"id" : "obj-55",
					"maxclass" : "newobj",
					"numinlets" : 2,
					"numoutlets" : 6,
					"outlettype" : [ "", "", "", "", "", "" ],
					"patching_rect" : [ 528.0, 148.0, 71.5, 22.0 ],
					"text" : "gate 6 0"
				}

			}
, 			{
				"box" : 				{
					"id" : "obj-33",
					"linecount" : 3,
					"maxclass" : "textedit",
					"numinlets" : 1,
					"numoutlets" : 4,
					"outlettype" : [ "", "int", "", "" ],
					"parameter_enable" : 0,
					"patching_rect" : [ 77.0, 218.0, 100.0, 50.0 ],
					"text" : "0.41574 0.643289 0.998789 1."
				}

			}
, 			{
				"box" : 				{
					"id" : "obj-23",
					"maxclass" : "button",
					"numinlets" : 1,
					"numoutlets" : 1,
					"outlettype" : [ "bang" ],
					"parameter_enable" : 0,
					"patching_rect" : [ 54.0, 132.0, 24.0, 24.0 ]
				}

			}
, 			{
				"box" : 				{
					"id" : "obj-5",
					"maxclass" : "newobj",
					"numinlets" : 1,
					"numoutlets" : 2,
					"outlettype" : [ "list", "bang" ],
					"patching_rect" : [ 54.0, 178.0, 158.0, 22.0 ],
					"text" : "colorpicker @compatibility 0"
				}

			}
, 			{
				"box" : 				{
					"id" : "obj-2",
					"maxclass" : "newobj",
					"numinlets" : 1,
					"numoutlets" : 2,
					"outlettype" : [ "int", "int" ],
					"patching_rect" : [ 528.0, 105.0, 133.0, 22.0 ],
					"text" : "pgmin a @zerobased 1"
				}

			}
 ],
		"lines" : [ 			{
				"patchline" : 				{
					"destination" : [ "obj-7", 3 ],
					"midpoints" : [ 42.0, 414.0, 108.5, 414.0 ],
					"source" : [ "obj-1", 1 ]
				}

			}
, 			{
				"patchline" : 				{
					"destination" : [ "obj-7", 0 ],
					"midpoints" : [ 31.5, 414.0, 62.5, 414.0 ],
					"source" : [ "obj-1", 0 ]
				}

			}
, 			{
				"patchline" : 				{
					"destination" : [ "obj-40", 0 ],
					"midpoints" : [ 228.5, 453.0, 228.5, 453.0 ],
					"source" : [ "obj-10", 0 ]
				}

			}
, 			{
				"patchline" : 				{
					"destination" : [ "obj-12", 0 ],
					"midpoints" : [ 406.5, 324.0, 406.5, 324.0 ],
					"source" : [ "obj-11", 0 ]
				}

			}
, 			{
				"patchline" : 				{
					"destination" : [ "obj-15", 0 ],
					"midpoints" : [ 406.5, 351.0, 309.0, 351.0, 309.0, 342.0, 74.5, 342.0 ],
					"source" : [ "obj-12", 0 ]
				}

			}
, 			{
				"patchline" : 				{
					"destination" : [ "obj-7", 2 ],
					"midpoints" : [ 417.0, 414.0, 93.166666666666671, 414.0 ],
					"source" : [ "obj-12", 1 ]
				}

			}
, 			{
				"patchline" : 				{
					"destination" : [ "obj-10", 2 ],
					"midpoints" : [ 471.0, 360.0, 417.0, 360.0, 417.0, 414.0, 259.166666666666686, 414.0 ],
					"source" : [ "obj-13", 1 ]
				}

			}
, 			{
				"patchline" : 				{
					"destination" : [ "obj-20", 0 ],
					"midpoints" : [ 460.5, 351.0, 309.0, 351.0, 309.0, 378.0, 211.5, 378.0 ],
					"source" : [ "obj-13", 0 ]
				}

			}
, 			{
				"patchline" : 				{
					"destination" : [ "obj-40", 0 ],
					"midpoints" : [ 388.5, 465.0, 228.5, 465.0 ],
					"order" : 1,
					"source" : [ "obj-14", 0 ]
				}

			}
, 			{
				"patchline" : 				{
					"destination" : [ "obj-42", 0 ],
					"midpoints" : [ 388.5, 465.0, 388.5, 465.0 ],
					"order" : 0,
					"source" : [ "obj-14", 0 ]
				}

			}
, 			{
				"patchline" : 				{
					"destination" : [ "obj-7", 0 ],
					"midpoints" : [ 74.5, 414.0, 62.5, 414.0 ],
					"source" : [ "obj-15", 0 ]
				}

			}
, 			{
				"patchline" : 				{
					"destination" : [ "obj-13", 0 ],
					"midpoints" : [ 461.5, 324.0, 460.5, 324.0 ],
					"source" : [ "obj-16", 0 ]
				}

			}
, 			{
				"patchline" : 				{
					"destination" : [ "obj-22", 0 ],
					"midpoints" : [ 651.5, 129.0, 651.5, 129.0 ],
					"order" : 0,
					"source" : [ "obj-2", 1 ]
				}

			}
, 			{
				"patchline" : 				{
					"destination" : [ "obj-55", 0 ],
					"midpoints" : [ 651.5, 144.0, 537.5, 144.0 ],
					"order" : 1,
					"source" : [ "obj-2", 1 ]
				}

			}
, 			{
				"patchline" : 				{
					"destination" : [ "obj-55", 1 ],
					"midpoints" : [ 537.5, 144.0, 590.0, 144.0 ],
					"source" : [ "obj-2", 0 ]
				}

			}
, 			{
				"patchline" : 				{
					"destination" : [ "obj-10", 0 ],
					"midpoints" : [ 211.5, 414.0, 228.5, 414.0 ],
					"source" : [ "obj-20", 0 ]
				}

			}
, 			{
				"patchline" : 				{
					"destination" : [ "obj-7", 3 ],
					"midpoints" : [ 323.5, 414.0, 108.5, 414.0 ],
					"source" : [ "obj-21", 0 ]
				}

			}
, 			{
				"patchline" : 				{
					"destination" : [ "obj-5", 0 ],
					"midpoints" : [ 63.5, 159.0, 63.5, 159.0 ],
					"source" : [ "obj-23", 0 ]
				}

			}
, 			{
				"patchline" : 				{
					"destination" : [ "obj-10", 3 ],
					"midpoints" : [ 376.5, 414.0, 274.5, 414.0 ],
					"source" : [ "obj-24", 0 ]
				}

			}
, 			{
				"patchline" : 				{
					"destination" : [ "obj-10", 0 ],
					"midpoints" : [ 199.0, 414.0, 228.5, 414.0 ],
					"order" : 0,
					"source" : [ "obj-27", 0 ]
				}

			}
, 			{
				"patchline" : 				{
					"destination" : [ "obj-7", 0 ],
					"midpoints" : [ 199.0, 414.0, 62.5, 414.0 ],
					"order" : 1,
					"source" : [ "obj-27", 0 ]
				}

			}
, 			{
				"patchline" : 				{
					"destination" : [ "obj-10", 5 ],
					"midpoints" : [ 725.5, 414.0, 305.166666666666686, 414.0 ],
					"order" : 0,
					"source" : [ "obj-29", 0 ]
				}

			}
, 			{
				"patchline" : 				{
					"destination" : [ "obj-7", 5 ],
					"midpoints" : [ 725.5, 414.0, 139.166666666666686, 414.0 ],
					"order" : 1,
					"source" : [ "obj-29", 0 ]
				}

			}
, 			{
				"patchline" : 				{
					"destination" : [ "obj-10", 4 ],
					"midpoints" : [ 656.5, 414.0, 289.833333333333371, 414.0 ],
					"order" : 0,
					"source" : [ "obj-30", 0 ]
				}

			}
, 			{
				"patchline" : 				{
					"destination" : [ "obj-7", 4 ],
					"midpoints" : [ 656.5, 414.0, 123.833333333333343, 414.0 ],
					"order" : 1,
					"source" : [ "obj-30", 0 ]
				}

			}
, 			{
				"patchline" : 				{
					"destination" : [ "obj-37", 0 ],
					"midpoints" : [ 249.5, 336.0, 249.5, 336.0 ],
					"source" : [ "obj-34", 0 ]
				}

			}
, 			{
				"patchline" : 				{
					"destination" : [ "obj-39", 0 ],
					"midpoints" : [ 62.0, 525.0, 157.5, 525.0 ],
					"source" : [ "obj-35", 0 ]
				}

			}
, 			{
				"patchline" : 				{
					"destination" : [ "obj-7", 0 ],
					"midpoints" : [ 249.5, 378.0, 252.0, 378.0, 252.0, 414.0, 62.5, 414.0 ],
					"source" : [ "obj-37", 0 ]
				}

			}
, 			{
				"patchline" : 				{
					"destination" : [ "obj-39", 1 ],
					"midpoints" : [ 228.5, 513.0, 222.0, 513.0, 222.0, 525.0, 168.0, 525.0 ],
					"source" : [ "obj-40", 0 ]
				}

			}
, 			{
				"patchline" : 				{
					"destination" : [ "obj-34", 0 ],
					"midpoints" : [ 249.5, 264.0, 249.5, 264.0 ],
					"source" : [ "obj-41", 0 ]
				}

			}
, 			{
				"patchline" : 				{
					"destination" : [ "obj-35", 0 ],
					"midpoints" : [ 388.5, 498.0, 327.0, 498.0, 327.0, 474.0, 62.0, 474.0 ],
					"order" : 1,
					"source" : [ "obj-42", 0 ]
				}

			}
, 			{
				"patchline" : 				{
					"destination" : [ "obj-40", 0 ],
					"midpoints" : [ 388.5, 498.0, 327.0, 498.0, 327.0, 474.0, 228.5, 474.0 ],
					"order" : 0,
					"source" : [ "obj-42", 0 ]
				}

			}
, 			{
				"patchline" : 				{
					"destination" : [ "obj-11", 0 ],
					"midpoints" : [ 509.5, 297.0, 406.5, 297.0 ],
					"order" : 1,
					"source" : [ "obj-43", 0 ]
				}

			}
, 			{
				"patchline" : 				{
					"destination" : [ "obj-16", 0 ],
					"midpoints" : [ 509.5, 297.0, 461.5, 297.0 ],
					"order" : 0,
					"source" : [ "obj-43", 0 ]
				}

			}
, 			{
				"patchline" : 				{
					"destination" : [ "obj-1", 0 ],
					"midpoints" : [ 63.5, 219.0, 31.5, 219.0 ],
					"order" : 1,
					"source" : [ "obj-5", 0 ]
				}

			}
, 			{
				"patchline" : 				{
					"destination" : [ "obj-33", 0 ],
					"midpoints" : [ 63.5, 213.0, 86.5, 213.0 ],
					"order" : 0,
					"source" : [ "obj-5", 0 ]
				}

			}
, 			{
				"patchline" : 				{
					"destination" : [ "obj-10", 6 ],
					"midpoints" : [ 590.0, 414.0, 320.5, 414.0 ],
					"order" : 1,
					"source" : [ "obj-55", 5 ]
				}

			}
, 			{
				"patchline" : 				{
					"destination" : [ "obj-10", 3 ],
					"midpoints" : [ 569.0, 258.0, 585.0, 258.0, 585.0, 414.0, 274.5, 414.0 ],
					"order" : 1,
					"source" : [ "obj-55", 3 ]
				}

			}
, 			{
				"patchline" : 				{
					"destination" : [ "obj-10", 0 ],
					"midpoints" : [ 548.0, 258.0, 585.0, 258.0, 585.0, 414.0, 228.5, 414.0 ],
					"order" : 1,
					"source" : [ "obj-55", 1 ]
				}

			}
, 			{
				"patchline" : 				{
					"destination" : [ "obj-17", 0 ],
					"midpoints" : [ 558.5, 171.0, 393.5, 171.0 ],
					"order" : 0,
					"source" : [ "obj-55", 2 ]
				}

			}
, 			{
				"patchline" : 				{
					"destination" : [ "obj-19", 0 ],
					"midpoints" : [ 569.0, 171.0, 431.5, 171.0 ],
					"order" : 0,
					"source" : [ "obj-55", 3 ]
				}

			}
, 			{
				"patchline" : 				{
					"destination" : [ "obj-25", 0 ],
					"midpoints" : [ 590.0, 186.0, 509.5, 186.0 ],
					"order" : 0,
					"source" : [ "obj-55", 5 ]
				}

			}
, 			{
				"patchline" : 				{
					"destination" : [ "obj-31", 0 ],
					"midpoints" : [ 579.5, 186.0, 471.5, 186.0 ],
					"order" : 0,
					"source" : [ "obj-55", 4 ]
				}

			}
, 			{
				"patchline" : 				{
					"destination" : [ "obj-4", 0 ],
					"midpoints" : [ 537.5, 171.0, 317.5, 171.0 ],
					"order" : 0,
					"source" : [ "obj-55", 0 ]
				}

			}
, 			{
				"patchline" : 				{
					"destination" : [ "obj-7", 6 ],
					"midpoints" : [ 579.5, 258.0, 585.0, 258.0, 585.0, 414.0, 154.5, 414.0 ],
					"order" : 1,
					"source" : [ "obj-55", 4 ]
				}

			}
, 			{
				"patchline" : 				{
					"destination" : [ "obj-7", 3 ],
					"midpoints" : [ 558.5, 258.0, 585.0, 258.0, 585.0, 414.0, 108.5, 414.0 ],
					"order" : 1,
					"source" : [ "obj-55", 2 ]
				}

			}
, 			{
				"patchline" : 				{
					"destination" : [ "obj-7", 0 ],
					"midpoints" : [ 537.5, 171.0, 222.0, 171.0, 222.0, 345.0, 51.0, 345.0, 51.0, 414.0, 62.5, 414.0 ],
					"order" : 1,
					"source" : [ "obj-55", 0 ]
				}

			}
, 			{
				"patchline" : 				{
					"destination" : [ "obj-9", 0 ],
					"midpoints" : [ 548.0, 171.0, 355.5, 171.0 ],
					"order" : 0,
					"source" : [ "obj-55", 1 ]
				}

			}
, 			{
				"patchline" : 				{
					"destination" : [ "obj-10", 1 ],
					"midpoints" : [ 369.5, 357.0, 300.0, 357.0, 300.0, 414.0, 243.833333333333343, 414.0 ],
					"order" : 0,
					"source" : [ "obj-6", 0 ]
				}

			}
, 			{
				"patchline" : 				{
					"destination" : [ "obj-7", 1 ],
					"midpoints" : [ 369.5, 357.0, 300.0, 357.0, 300.0, 414.0, 77.833333333333343, 414.0 ],
					"order" : 1,
					"source" : [ "obj-6", 0 ]
				}

			}
, 			{
				"patchline" : 				{
					"destination" : [ "obj-35", 0 ],
					"midpoints" : [ 62.5, 453.0, 62.0, 453.0 ],
					"source" : [ "obj-7", 0 ]
				}

			}
, 			{
				"patchline" : 				{
					"destination" : [ "obj-39", 4 ],
					"midpoints" : [ 246.5, 564.0, 219.0, 564.0, 219.0, 534.0, 199.5, 534.0 ],
					"source" : [ "obj-8", 0 ]
				}

			}
 ],
		"dependency_cache" : [ 			{
				"name" : "colours.txt",
				"bootpath" : "~/ic/code/max/dmx",
				"patcherrelativepath" : ".",
				"type" : "TEXT",
				"implicit" : 1
			}
, 			{
				"name" : "face-projection-aux.maxpat",
				"bootpath" : "~/ic/code/max/dmx",
				"patcherrelativepath" : ".",
				"type" : "JSON",
				"implicit" : 1
			}
, 			{
				"name" : "face-projection.maxpat",
				"bootpath" : "~/ic/code/max/dmx",
				"patcherrelativepath" : ".",
				"type" : "JSON",
				"implicit" : 1
			}
, 			{
				"name" : "jiggler.js",
				"bootpath" : "~/ic/code/max/dmx",
				"patcherrelativepath" : ".",
				"type" : "TEXT",
				"implicit" : 1
			}
, 			{
				"name" : "jiggler.maxpat",
				"bootpath" : "~/ic/code/max/dmx",
				"patcherrelativepath" : ".",
				"type" : "JSON",
				"implicit" : 1
			}
, 			{
				"name" : "rgb-f2i.maxpat",
				"bootpath" : "~/ic/code/max/dmx",
				"patcherrelativepath" : ".",
				"type" : "JSON",
				"implicit" : 1
			}
, 			{
				"name" : "rgb-scaler.maxpat",
				"bootpath" : "~/ic/code/max/dmx",
				"patcherrelativepath" : ".",
				"type" : "JSON",
				"implicit" : 1
			}
 ],
		"autosave" : 0
	}

}
